PathFileType	4	(X/Y/Z)	Walk1.trc
DataRate	CameraRate	NumFrames	NumMarkers	Units	OrigDataRate	OrigDataStartFrame	OrigNumFrames
200.000000	200.000000	4	59	mm	200.000000	389	593
Frame#	Times		CLAV		STRN		LASI		RASI		RACR1		RFA1		RWRU		LACR1		LUA1		LFA1		LCAR		RTH2		LTH3		LTH2		LLFC		LTB3		LTB4		LToe		LTB1		RUA1		RElbow		RTH4		LTH4		LMMAL		LMT1		LTB2		LMT5		LTH1		RTH1		RCAR		LLMAL		RBack		C7		RFHD		RTH3		LFHD		RPSI		RWRR		T10		LPSI		RBHD		RLFC		LElbow		RTB1		LWRU		RElbowM		RTB4		RTB2		RToe		LBHD		LWRR		RTB3		RMT1		LElbowM		RCAL		RMT5		RLMAL		RMMAL		LCAL
			X1	Y1	Z1	X2	Y2	Z2	X3	Y3	Z3	X4	Y4	Z4	X5	Y5	Z5	X6	Y6	Z6	X7	Y7	Z7	X8	Y8	Z8	X9	Y9	Z9	X10	Y10	Z10	X11	Y11	Z11	X12	Y12	Z12	X13	Y13	Z13	X14	Y14	Z14	X15	Y15	Z15	X16	Y16	Z16	X17	Y17	Z17	X18	Y18	Z18	X19	Y19	Z19	X20	Y20	Z20	X21	Y21	Z21	X22	Y22	Z22	X23	Y23	Z23	X24	Y24	Z24	X25	Y25	Z25	X26	Y26	Z26	X27	Y27	Z27	X28	Y28	Z28	X29	Y29	Z29	X30	Y30	Z30	X31	Y31	Z31	X32	Y32	Z32	X33	Y33	Z33	X34	Y34	Z34	X35	Y35	Z35	X36	Y36	Z36	X37	Y37	Z37	X38	Y38	Z38	X39	Y39	Z39	X40	Y40	Z40	X41	Y41	Z41	X42	Y42	Z42	X43	Y43	Z43	X44	Y44	Z44	X45	Y45	Z45	X46	Y46	Z46	X47	Y47	Z47	X48	Y48	Z48	X49	Y49	Z49	X50	Y50	Z50	X51	Y51	Z51	X52	Y52	Z52	X53	Y53	Z53	X54	Y54	Z54	X55	Y55	Z55	X56	Y56	Z56	X57	Y57	Z57	X58	Y58	Z58	X59	Y59	Z59

389	1.945	-72.368	1320.3	-0.59117	4.7272	1096.9	-7.0334	-67.524	914.53	-135.27	-32.06	929.04	130.56	-122.33	1325.6	175.16	-189.88	871.22	265.38	-240.49	770.13	280.72	-137.68	1343.8	-166.36	-125.1	1140.7	-226.43	-6.1959	935.38	-254.47	88.592	812.41	-258.65	3.4035	686.06	137.76	-187.69	523.09	-122.9	-113.2	610.4	-109.81	-219.27	420.31	-109.52	-392.63	191.43	-44.958	-324.24	253.44	-44.966	-347.82	26.781	-67.92	-256.03	320.26	-36.088	-179.23	1119.3	229.59	-222.32	1019.4	247.37	-54.417	655.7	171.66	-184.88	610.78	-138.5	-475.81	133.32	-15.001	-389.23	38.482	-39.834	-337.92	272.82	-113.22	-430.85	28.473	-115.11	-179.1	706.86	-153.28	-86.234	743.62	190.03	-203.51	721.51	282.7	-494.16	130.54	-96.34	-241.73	1291.6	100.85	-197.3	1399.6	10.218	-15.424	1554.2	57.207	-23.701	568.16	152.6	-20.48	1556.4	-15.679	-254.66	961.01	84.602	-185.71	762.72	231.82	-234.57	1115.1	5.6031	-268.14	951.93	-28.825	-189.75	1529.5	88.36	5.3751	469.4	140.34	-111.94	1021.4	-249.12	55.898	354.48	64.283	25.032	818.21	-262.08	-230.46	999.38	163.59	61.527	261.67	62.141	49.285	262.4	131.81	238.76	39.196	95.518	-191.63	1543.6	-38.665	69.314	848.3	-214.54	68.714	169.81	59.325	200.86	43.243	65.474	-131.11	997.77	-183.85	1.2199	22.88	54.276	155.92	21.686	141.45	40.253	57.446	104.71	61.121	78.096	28.206	-552.39	133.14	-43.555
390	1.95	-66.112	1320.6	0.54897	11.118	1097.2	-5.9806	-61.07	914.35	-133.44	-25.834	929.44	131.31	-115.97	1325.7	176.27	-182.66	871.14	265.92	-233	769.93	281.12	-131.22	1344.2	-165.14	-119.19	1141.1	-225.33	-1.2691	935.32	-253.77	93.099	812.08	-258.26	9.793	687.23	137.77	-179.2	522.81	-122.51	-105.44	610.64	-108.74	-210.56	420.43	-109.39	-386.97	193.95	-46.103	-317.73	254.96	-45.718	-347.94	26.646	-67.794	-248.48	320.68	-36.492	-172.44	1119.3	230.47	-215.41	1019.3	248.17	-47.764	656.49	171.64	-176.94	610.56	-137.89	-471.1	137.21	-16.388	-388.48	38.821	-40.073	-331.14	274.98	-113.88	-429.7	29.94	-115.27	-171.77	706.71	-152.37	-79.861	744.2	190.49	-195.89	721.41	283.04	-489.48	134.86	-97.67	-235.36	1291.8	102	-191.04	1399.8	11.376	-9.6215	1554.8	58.258	-16.637	569.18	152.46	-14.719	1556.9	-14.601	-248.68	961.45	85.318	-178.25	762.7	232.17	-228.67	1115.4	6.4573	-262.25	951.93	-28.237	-183.86	1529.5	89.572	11.731	469.92	140.42	-106.73	1021.7	-248.16	60.548	354.34	64.082	29.535	818.04	-261.46	-223.47	999.41	164.35	64.888	261.45	61.836	53.142	262.29	131.64	239.72	37.306	94.721	-185.85	1543.6	-37.504	74.078	848.01	-214.07	70.789	169.5	58.926	201.47	41.835	64.691	-125.75	998.11	-182.77	1.2805	23.213	54.291	156.17	21.372	141.74	40.958	57.584	104.41	61.669	77.767	27.825	-547.33	139.35	-45.089
391	1.955	-59.893	1320.9	1.6681	17.462	1097.5	-4.9293	-54.603	914.22	-131.59	-19.644	929.88	132.09	-109.6	1325.9	177.36	-175.36	871.12	266.44	-225.42	769.77	281.51	-124.79	1344.5	-163.92	-113.31	1141.5	-224.24	3.5773	935.27	-253.05	97.478	811.72	-257.84	16.016	688.31	137.85	-170.51	522.57	-122.16	-97.548	610.96	-107.7	-201.56	420.6	-109.29	-380.98	196.55	-47.238	-310.88	256.54	-46.466	-348	26.501	-67.69	-240.61	321.14	-36.916	-165.63	1119.3	231.35	-208.46	1019.2	248.97	-41.269	657.2	171.67	-168.85	610.38	-137.3	-466.04	141.19	-17.742	-387.57	39.268	-40.344	-324.02	277.2	-114.54	-428.36	31.611	-115.45	-164.37	706.6	-151.47	-73.657	744.68	190.98	-188.15	721.37	283.35	-484.46	139.28	-98.964	-229.01	1292	103.17	-184.82	1400.1	12.52	-3.8091	1555.5	59.288	-9.724	570.1	152.36	-8.9487	1557.5	-13.541	-242.73	961.89	86.028	-170.69	762.74	232.51	-222.81	1115.8	7.3109	-256.4	951.95	-27.646	-177.95	1529.6	90.767	17.932	470.37	140.51	-101.57	1022.1	-247.21	65.063	354.18	63.884	33.913	817.86	-260.84	-216.46	999.5	165.12	68.13	261.23	61.541	56.841	262.18	131.48	240.59	35.726	94.049	-180.05	1543.6	-36.359	78.707	847.69	-213.58	72.747	169.21	58.541	202	40.714	63.994	-120.45	998.5	-181.7	1.3178	23.507	54.307	156.35	21.159	142.01	41.596	57.736	104.12	62.134	77.479	27.466	-541.86	145.7	-46.586
392	1.96	-53.717	1321.2	2.7639	23.755	1097.9	-3.8816	-48.13	914.16	-129.75	-13.495	930.37	132.88	-103.24	1326.2	178.43	-167.99	871.16	266.94	-217.72	769.66	281.9	-118.4	1344.9	-162.71	-107.46	1142	-223.16	8.3458	935.24	-252.33	101.73	811.32	-257.39	22.07	689.27	138.01	-161.62	522.37	-121.85	-89.53	611.36	-106.7	-192.3	420.79	-109.23	-374.65	199.21	-48.346	-303.73	258.18	-47.201	-347.98	26.35	-67.611	-232.46	321.66	-37.355	-158.79	1119.4	232.22	-201.48	1019.2	249.78	-34.941	657.8	171.78	-160.64	610.24	-136.75	-460.62	145.24	-19.046	-386.49	39.837	-40.647	-316.59	279.47	-115.19	-426.79	33.494	-115.63	-156.91	706.53	-150.59	-67.618	745.07	191.51	-180.29	721.38	283.65	-479.09	143.78	-100.21	-222.69	1292.2	104.34	-178.64	1400.3	13.651	2.012	1556.1	60.294	-2.9942	570.92	152.33	-3.1722	1558	-12.504	-236.82	962.31	86.735	-163.03	762.85	232.83	-216.98	1116.1	8.1653	-250.58	951.99	-27.047	-172.04	1529.7	91.942	23.959	470.76	140.6	-96.463	1022.4	-246.27	69.44	354	63.7	38.171	817.69	-260.22	-209.42	999.65	165.89	71.254	261	61.264	60.377	262.04	131.32	241.37	34.424	93.496	-174.26	1543.6	-35.23	83.206	847.33	-213.06	74.594	168.92	58.179	202.46	39.846	63.38	-115.23	998.94	-180.63	1.3368	23.765	54.324	156.48	21.027	142.26	42.173	57.894	103.87	62.529	77.226	27.132	-535.99	152.14	-48.032
